<svg width="190" height="238" viewBox="0 0 190 238" fill="none" xmlns="http://www.w3.org/2000/svg">
<path d="M189.059 24.2273C172.338 12.0682 152.698 4.50859 132.117 2.31009C111.535 0.111584 90.7362 3.35038 71.8099 11.7017C52.883 20.052 36.4961 33.2217 24.2959 49.8847C12.0955 66.5476 4.51156 86.1184 2.30633 106.63C0.1011 127.141 3.35212 147.869 11.7328 166.732C20.1135 185.595 33.3285 201.928 50.0496 214.089C66.7706 226.25 86.4092 233.81 106.99 236.011C127.572 238.211 148.371 234.974 167.298 226.625L163.929 219.041C146.338 226.801 127.006 229.81 107.878 227.765C88.7485 225.719 70.4957 218.692 54.955 207.389C39.4139 196.087 27.1315 180.907 19.3423 163.375C11.5531 145.844 8.53141 126.578 10.581 107.514C12.6307 88.4504 19.6793 70.2607 31.0187 54.7733C42.358 39.2858 57.5884 27.0463 75.1797 19.285C92.7698 11.5236 112.101 8.51305 131.231 10.5563C150.36 12.6005 168.613 19.6258 184.154 30.9271L189.059 24.2273Z" fill="#FFF8DC"/>
</svg>
