<svg width="233" height="224" viewBox="0 0 233 224" fill="none" xmlns="http://www.w3.org/2000/svg">
<path d="M105.427 0.234726C89.6863 1.86682 74.4511 6.48086 60.6253 13.8033C46.7995 21.1257 34.6641 31.0075 24.9387 42.8626C15.2133 54.7177 8.09593 68.3048 4.00856 82.8181C-0.0788165 97.3317 -1.05296 112.477 1.14388 127.354C3.34072 142.231 8.66382 156.539 16.7976 169.428C24.9313 182.317 35.7101 193.525 48.4949 202.388C61.2796 211.251 75.8099 217.589 91.2247 221.025C106.639 224.461 122.623 224.926 138.231 222.391L136.822 214.585C122.317 216.941 107.46 216.51 93.1332 213.316C78.807 210.123 65.3019 204.232 53.4194 195.994C41.537 187.757 31.5188 177.339 23.9591 165.36C16.3993 153.38 11.4519 140.083 9.41012 126.255C7.36828 112.427 8.27365 98.3518 12.0726 84.8626C15.8716 71.3734 22.4866 58.7451 31.5257 47.7266C40.5647 36.7081 51.8437 27.5237 64.6938 20.7181C77.5441 13.9124 91.7039 9.62394 106.333 8.10699L105.427 0.234726Z" fill="#FFF8DC"/>
<path d="M136.546 209.475C150.731 208.13 164.475 204.179 176.964 197.858C189.452 191.537 200.43 182.973 209.248 172.675C218.065 162.376 224.542 150.553 228.295 137.906C232.047 125.259 232.999 112.045 231.093 99.0485C229.187 86.0516 224.463 73.5369 217.2 62.2458C209.937 50.9548 200.284 41.1171 188.813 33.3166C177.341 25.5162 164.285 19.911 150.419 16.834C136.552 13.757 122.158 13.2705 108.088 15.404L109.319 22.2244C122.395 20.2415 135.774 20.6932 148.662 23.5529C161.549 26.4127 173.684 31.6222 184.346 38.8728C195.008 46.1227 203.98 55.2659 210.73 65.7604C217.48 76.2548 221.871 87.8861 223.642 99.9659C225.414 112.045 224.529 124.326 221.042 136.081C217.554 147.835 211.534 158.824 203.339 168.396C195.144 177.967 184.94 185.927 173.333 191.802C161.726 197.677 148.951 201.349 135.768 202.599L136.546 209.475Z" fill="#E23558"/>
</svg>
