<svg width="212" height="224" viewBox="0 0 212 224" fill="none" xmlns="http://www.w3.org/2000/svg">
<path d="M194.754 163.182C204.262 150.446 210.071 135.559 211.594 120.019C213.117 104.478 210.302 88.8307 203.431 74.6494C196.561 60.4677 185.877 48.2519 172.453 39.2295C159.03 30.2071 143.339 24.696 126.959 23.25C110.578 21.8041 94.0855 24.4742 79.1382 30.9921C64.1901 37.51 51.314 47.6461 41.8036 60.3815C32.2933 73.1168 26.4837 88.0032 24.959 103.543C23.4342 119.084 26.2479 134.732 33.1173 148.914L39.127 146.294C32.7425 133.112 30.1273 118.569 31.5445 104.126C32.9617 89.6814 38.3612 75.8454 47.2004 64.0091C56.0397 52.1725 68.0071 42.7518 81.8998 36.6938C95.7926 30.6359 111.121 28.1542 126.346 29.4981C141.57 30.842 156.154 35.9642 168.63 44.3499C181.107 52.7355 191.037 64.0893 197.422 77.2702C203.808 90.4503 206.424 104.994 205.009 119.438C203.592 133.882 198.194 147.718 189.356 159.555L194.754 163.182Z" fill="#E23558"/>
<path d="M178.622 82.4213C171.247 68.7791 158.981 58.0838 144.032 52.2615C129.082 46.4391 112.433 45.8723 97.0829 50.6633L98.5786 54.9768C112.846 50.5239 128.32 51.0507 142.214 56.4621C156.108 61.8736 167.509 71.8143 174.363 84.4934L178.622 82.4213Z" fill="#FFF8DC"/>
<path d="M105.427 0.234726C89.6863 1.86682 74.4511 6.48086 60.6253 13.8033C46.7995 21.1257 34.6641 31.0075 24.9387 42.8626C15.2133 54.7177 8.09593 68.3048 4.00856 82.8181C-0.0788165 97.3317 -1.05296 112.477 1.14388 127.354C3.34072 142.231 8.66382 156.539 16.7976 169.428C24.9313 182.317 35.7101 193.525 48.4949 202.388C61.2796 211.251 75.8099 217.589 91.2247 221.025C106.639 224.461 122.623 224.926 138.231 222.391L136.822 214.585C122.317 216.941 107.46 216.51 93.1332 213.316C78.807 210.123 65.3019 204.232 53.4194 195.994C41.537 187.757 31.5188 177.339 23.9591 165.36C16.3993 153.38 11.4519 140.083 9.41012 126.255C7.36828 112.427 8.27365 98.3518 12.0726 84.8626C15.8716 71.3734 22.4866 58.7451 31.5257 47.7266C40.5647 36.7081 51.8437 27.5237 64.6938 20.7181C77.5441 13.9124 91.7039 9.62394 106.333 8.10699L105.427 0.234726Z" fill="#FFF8DC"/>
</svg>
