<svg width="234" height="234" viewBox="0 0 234 234" fill="none" xmlns="http://www.w3.org/2000/svg">
<path d="M96.5368 232.143C120.561 236.412 145.32 233.06 167.344 222.556C189.368 212.051 207.555 194.921 219.357 173.564C231.159 152.207 235.986 127.694 233.16 103.457C230.334 79.2201 219.998 56.4742 203.599 38.4053C187.2 20.3363 165.56 7.84943 141.71 2.69363C117.86 -2.46217 92.9947 -0.0286147 70.5968 9.65342C48.1989 19.3355 29.3905 35.781 16.806 56.6865C4.22161 77.592 -1.50847 101.91 0.41843 126.235L12.0766 125.312C10.3424 103.419 15.4994 81.5328 26.8254 62.7179C38.1514 43.9029 55.079 29.1019 75.2371 20.3881C95.3952 11.6743 117.774 9.48405 139.239 14.1243C160.704 18.7645 180.18 30.0027 194.939 46.2647C209.698 62.5268 219.001 82.9981 221.544 104.811C224.087 126.624 219.744 148.687 209.122 167.908C198.5 187.129 182.131 202.546 162.31 212C142.488 221.454 120.205 224.471 98.5831 220.628L96.5368 232.143Z" fill="#E23558"/>
</svg>
