<svg width="324" height="324" viewBox="0 0 324 324" fill="none" xmlns="http://www.w3.org/2000/svg">
<path d="M148.812 0.537656C124.104 2.55578 100.187 10.2179 78.9058 22.934C57.6242 35.6501 39.545 53.0809 26.0604 73.884C12.5758 94.6871 4.04565 118.308 1.12677 142.926C-1.79211 167.545 0.978186 192.505 9.22432 215.885C17.4705 239.265 30.9724 260.44 48.6905 277.78C66.4085 295.12 87.8699 308.162 111.422 315.902C134.974 323.642 159.988 325.874 184.538 322.425C209.088 318.975 232.519 309.938 253.027 296.008L243.924 282.607C225.467 295.144 204.379 303.278 182.284 306.382C160.189 309.486 137.676 307.478 116.48 300.512C95.2829 293.546 75.9676 281.808 60.0214 266.202C44.0752 250.596 31.9234 231.538 24.5019 210.496C17.0804 189.455 14.5871 166.991 17.2141 144.834C19.8411 122.677 27.5183 101.418 39.6544 82.6956C51.7905 63.9728 68.0618 48.2851 87.2152 36.8406C106.369 25.3961 127.893 18.5002 150.131 16.6839L148.812 0.537656Z" fill="#FFF8DC"/>
</svg>
