<svg width="152" height="193" viewBox="0 0 152 193" fill="none" xmlns="http://www.w3.org/2000/svg">
<path d="M0.0228778 174.35C13.7436 184.109 29.7895 190.08 46.5454 191.662C63.3019 193.244 80.179 190.382 95.4806 183.364C110.783 176.346 123.97 165.417 133.717 151.679C143.464 137.941 149.428 121.875 151.009 105.097C152.59 88.3188 149.732 71.42 142.723 56.0989C135.715 40.7771 124.802 27.5727 111.081 17.8125C97.3604 8.05232 81.3153 2.08025 64.5595 0.496624C47.8029 -1.08708 30.9258 1.77336 15.6235 8.79053L18.4409 14.9506C32.6636 8.42871 48.3499 5.77005 63.9231 7.242C79.497 8.71388 94.4099 14.2645 107.162 23.3359C119.914 32.4073 130.057 44.6798 136.571 58.9199C143.086 73.1601 145.741 88.8665 144.272 104.46C142.802 120.054 137.26 134.986 128.2 147.755C119.141 160.525 106.885 170.681 92.6624 177.204C78.4412 183.727 62.755 186.387 47.181 184.917C31.607 183.446 16.6942 177.897 3.94137 168.826L0.0228778 174.35Z" fill="#E23558"/>
</svg>
